<svg width="79" height="27" viewBox="0 0 79 27" fill="none" xmlns="http://www.w3.org/2000/svg">
<rect x="2" y="2" width="75" height="23" rx="4" stroke="#69FFDB" stroke-width="4"/>
<rect x="2" y="2" width="54" height="23" rx="4" fill="#69FFDB"/>
<path d="M5.988 18L9.792 9.6H10.98L14.796 18H13.536L10.14 10.272H10.62L7.224 18H5.988ZM7.608 15.9L7.932 14.94H12.66L13.008 15.9H7.608ZM15.8811 18V11.64H16.9851V13.368L16.8771 12.936C17.0531 12.496 17.3491 12.16 17.7651 11.928C18.1811 11.696 18.6931 11.58 19.3011 11.58V12.696C19.2531 12.688 19.2051 12.684 19.1571 12.684C19.1171 12.684 19.0771 12.684 19.0371 12.684C18.4211 12.684 17.9331 12.868 17.5731 13.236C17.2131 13.604 17.0331 14.136 17.0331 14.832V18H15.8811ZM23.1627 18.072C22.5227 18.072 22.0267 17.9 21.6747 17.556C21.3227 17.212 21.1467 16.72 21.1467 16.08V10.248H22.2987V16.032C22.2987 16.376 22.3827 16.64 22.5507 16.824C22.7267 17.008 22.9747 17.1 23.2947 17.1C23.6547 17.1 23.9547 17 24.1947 16.8L24.5547 17.628C24.3787 17.78 24.1667 17.892 23.9187 17.964C23.6787 18.036 23.4267 18.072 23.1627 18.072ZM20.0667 12.588V11.64H24.1227V12.588H20.0667ZM29.3435 11.58C29.8635 11.58 30.3195 11.68 30.7115 11.88C31.1115 12.08 31.4235 12.384 31.6475 12.792C31.8715 13.2 31.9835 13.716 31.9835 14.34V18H30.8315V14.472C30.8315 13.856 30.6795 13.392 30.3755 13.08C30.0795 12.768 29.6595 12.612 29.1155 12.612C28.7075 12.612 28.3515 12.692 28.0475 12.852C27.7435 13.012 27.5075 13.248 27.3395 13.56C27.1795 13.872 27.0995 14.26 27.0995 14.724V18H25.9475V9.096H27.0995V13.356L26.8715 12.9C27.0795 12.484 27.3995 12.16 27.8315 11.928C28.2635 11.696 28.7675 11.58 29.3435 11.58ZM34.1154 18V11.64H35.2674V18H34.1154ZM34.6914 10.416C34.4674 10.416 34.2794 10.344 34.1274 10.2C33.9834 10.056 33.9114 9.88 33.9114 9.672C33.9114 9.456 33.9834 9.276 34.1274 9.132C34.2794 8.988 34.4674 8.916 34.6914 8.916C34.9154 8.916 35.0994 8.988 35.2434 9.132C35.3954 9.268 35.4714 9.44 35.4714 9.648C35.4714 9.864 35.3994 10.048 35.2554 10.2C35.1114 10.344 34.9234 10.416 34.6914 10.416ZM41.415 18V16.656L41.355 16.404V14.112C41.355 13.624 41.211 13.248 40.923 12.984C40.643 12.712 40.219 12.576 39.651 12.576C39.275 12.576 38.907 12.64 38.547 12.768C38.187 12.888 37.883 13.052 37.635 13.26L37.155 12.396C37.483 12.132 37.875 11.932 38.331 11.796C38.795 11.652 39.279 11.58 39.783 11.58C40.655 11.58 41.327 11.792 41.799 12.216C42.271 12.64 42.507 13.288 42.507 14.16V18H41.415ZM39.327 18.072C38.855 18.072 38.439 17.992 38.079 17.832C37.727 17.672 37.455 17.452 37.263 17.172C37.071 16.884 36.975 16.56 36.975 16.2C36.975 15.856 37.055 15.544 37.215 15.264C37.383 14.984 37.651 14.76 38.019 14.592C38.395 14.424 38.899 14.34 39.531 14.34H41.547V15.168H39.579C39.003 15.168 38.615 15.264 38.415 15.456C38.215 15.648 38.115 15.88 38.115 16.152C38.115 16.464 38.239 16.716 38.487 16.908C38.735 17.092 39.079 17.184 39.519 17.184C39.951 17.184 40.327 17.088 40.647 16.896C40.975 16.704 41.211 16.424 41.355 16.056L41.583 16.848C41.431 17.224 41.163 17.524 40.779 17.748C40.395 17.964 39.911 18.072 39.327 18.072ZM48.0349 11.58C48.5549 11.58 49.0109 11.68 49.4029 11.88C49.8029 12.08 50.1149 12.384 50.3389 12.792C50.5629 13.2 50.6749 13.716 50.6749 14.34V18H49.5229V14.472C49.5229 13.856 49.3709 13.392 49.0669 13.08C48.7709 12.768 48.3509 12.612 47.8069 12.612C47.3989 12.612 47.0429 12.692 46.7389 12.852C46.4349 13.012 46.1989 13.248 46.0309 13.56C45.8709 13.872 45.7909 14.26 45.7909 14.724V18H44.6389V11.64H45.7429V13.356L45.5629 12.9C45.7709 12.484 46.0909 12.16 46.5229 11.928C46.9549 11.696 47.4589 11.58 48.0349 11.58Z" fill="black"/>
<rect x="56" y="2" width="21" height="23" rx="4" fill="black"/>
<path d="M59.988 18L63.792 9.6H64.98L68.796 18H67.536L64.14 10.272H64.62L61.224 18H59.988ZM61.608 15.9L61.932 14.94H66.66L67.008 15.9H61.608ZM70.0491 18V9.6H71.2491V18H70.0491Z" fill="white"/>
</svg>
